<svg width="342" height="342" viewBox="0 0 342 342" fill="none" xmlns="http://www.w3.org/2000/svg">
<path d="M171 298.607C244.244 298.607 303.621 295.14 303.621 290.864C303.621 286.588 244.244 283.121 171 283.121C97.7555 283.121 38.3792 286.588 38.3792 290.864C38.3792 295.14 97.7555 298.607 171 298.607Z" fill="#F5F5F5"/>
<path d="M105.965 285.467H111.253L113.366 273.23H108.079L105.965 285.467Z" fill="#FFC3BD"/>
<path d="M74.8911 285.467H80.1784L85.0075 273.23H79.7202L74.8911 285.467Z" fill="#FFC3BD"/>
<path d="M80.9172 284.858H74.4739C74.3686 284.86 74.2665 284.896 74.1828 284.96C74.0991 285.024 74.0381 285.113 74.0088 285.214L72.6887 289.913C72.6558 290.021 72.6484 290.135 72.667 290.246C72.6857 290.357 72.73 290.462 72.7964 290.553C72.8628 290.644 72.9494 290.718 73.0494 290.77C73.1495 290.821 73.2601 290.849 73.3727 290.85C75.4247 290.816 76.9705 290.693 79.5766 290.693C81.184 290.693 84.4809 290.864 86.7039 290.864C88.9269 290.864 89.3373 288.668 88.4412 288.47C84.4193 287.581 82.9692 286.35 81.7243 285.18C81.504 284.977 81.2166 284.863 80.9172 284.858Z" fill="#263238"/>
<path d="M111.246 284.858H105.48C105.373 284.86 105.27 284.895 105.185 284.959C105.101 285.023 105.038 285.112 105.008 285.214L103.694 289.913C103.66 290.021 103.651 290.135 103.669 290.247C103.688 290.358 103.732 290.464 103.798 290.555C103.865 290.647 103.952 290.721 104.053 290.772C104.154 290.824 104.265 290.85 104.378 290.85C106.43 290.816 109.474 290.693 112.087 290.693C115.151 290.693 117.778 290.864 121.369 290.864C123.537 290.864 124.262 288.668 123.366 288.47C119.262 287.567 115.918 287.471 112.477 285.269C112.114 285.018 111.687 284.876 111.246 284.858V284.858Z" fill="#263238"/>
<path d="M110.972 134.125C113.763 135.877 116.697 137.641 119.591 139.317C122.484 140.993 125.425 142.621 128.366 144.03C129.098 144.392 129.83 144.714 130.562 145.042C130.925 145.206 131.287 145.336 131.65 145.487L132.197 145.712L132.641 145.877C133.581 146.286 134.619 146.417 135.63 146.253C136.736 145.974 137.727 145.36 138.469 144.495C138.953 143.975 139.395 143.417 139.789 142.826C139.994 142.518 140.193 142.197 140.377 141.868L140.904 140.904L144.776 141.793C144.719 142.308 144.634 142.82 144.522 143.325C144.413 143.804 144.29 144.283 144.139 144.762C143.841 145.743 143.435 146.688 142.929 147.58C142.371 148.553 141.68 149.444 140.877 150.227C140.003 151.09 138.978 151.785 137.853 152.279C136.696 152.781 135.455 153.064 134.194 153.113C133.014 153.167 131.832 153.05 130.685 152.764C130.425 152.703 130.111 152.635 129.892 152.559L129.208 152.347C128.763 152.204 128.305 152.067 127.874 151.909C127.012 151.588 126.123 151.287 125.295 150.931C121.994 149.564 118.772 148.014 115.644 146.287C114.091 145.439 112.559 144.57 111.054 143.654C109.55 142.737 108.065 141.834 106.554 140.815L110.972 134.125Z" fill="#FFC3BD"/>
<path d="M103.017 139.002C104.064 144.05 116.766 151.314 116.766 151.314L121.396 139.146C121.396 139.146 117.778 136.882 112.374 133.27C106.971 129.659 101.861 133.462 103.017 139.002Z" fill="#263238"/>
<path d="M139.433 142.853L143.107 137.087L145.843 143.366C145.843 143.366 143.667 146.663 140.309 144.967L139.433 142.853Z" fill="#FFC3BD"/>
<path d="M147.792 134.905L149.591 139.611L145.849 143.359L143.106 137.087L147.792 134.905Z" fill="#FFC3BD"/>
<path opacity="0.2" d="M113.366 273.237L112.272 279.544H106.991L108.079 273.237H113.366Z" fill="black"/>
<path opacity="0.2" d="M79.7202 273.237H85.0075L82.5109 279.544H77.2305L79.7202 273.237Z" fill="black"/>
<path d="M109.146 132.012C109.146 132.012 116.485 147.142 112.764 177.593L84.7202 181.273C84.2141 176.964 85.4042 155.466 79.7476 135.596C82.7918 134.591 85.8965 133.78 89.0431 133.167C92.9791 132.418 96.9553 131.897 100.952 131.608C103.689 131.524 106.43 131.659 109.146 132.012Z" fill="#263238"/>
<path opacity="0.2" d="M79.7749 135.61L79.898 135.569C82.634 134.803 85.7873 137.689 87.4699 141.902C89.9255 148.058 92.8188 156.178 92.8188 156.178L83.7558 158.346C83.1332 150.661 81.8006 143.049 79.7749 135.61V135.61Z" fill="black"/>
<path d="M89.2689 119.515C90.3018 123.277 91.5603 130.254 89.0706 133.195C92.297 135.886 96.2527 137.553 100.432 137.983C103.052 135.199 100.979 131.642 100.979 131.642C96.6288 131.171 96.5125 127.963 97.0392 124.864L89.2689 119.515Z" fill="#FFC3BD"/>
<path d="M111.095 166.499L104.809 131.615C103.653 131.823 102.549 132.257 101.56 132.891C100.571 133.526 99.7164 134.349 99.0457 135.314C98.3749 136.279 97.9008 137.366 97.6504 138.514C97.4 139.663 97.3783 140.849 97.5863 142.005L100.699 159.297C101.125 161.629 102.459 163.698 104.408 165.048C106.357 166.398 108.762 166.92 111.095 166.499V166.499Z" fill="#348A5F"/>
<path opacity="0.3" d="M111.095 166.499L104.809 131.615C103.653 131.823 102.549 132.257 101.56 132.891C100.571 133.526 99.7164 134.349 99.0457 135.314C98.3749 136.279 97.9008 137.366 97.6504 138.514C97.4 139.663 97.3783 140.849 97.5863 142.005L100.699 159.297C101.125 161.629 102.459 163.698 104.408 165.048C106.357 166.398 108.762 166.92 111.095 166.499V166.499Z" fill="black"/>
<path d="M135.179 201.027L130.774 201.821C130.017 201.957 129.239 201.93 128.493 201.742C127.746 201.554 127.049 201.21 126.446 200.732C125.843 200.254 125.348 199.653 124.996 198.969C124.643 198.285 124.439 197.534 124.399 196.766L122.586 161.882C122.516 160.564 122.93 159.265 123.75 158.231C124.57 157.197 125.74 156.498 127.039 156.266L135.186 154.796C136.061 154.64 136.96 154.701 137.806 154.974C138.651 155.247 139.417 155.724 140.035 156.362C140.653 157.001 141.105 157.781 141.35 158.635C141.596 159.489 141.628 160.39 141.444 161.259L138.168 176.595C138.057 177.123 138.025 177.665 138.072 178.202L139.591 195.213C139.712 196.558 139.327 197.899 138.511 198.975C137.695 200.05 136.507 200.782 135.179 201.027V201.027Z" fill="#348A5F"/>
<path opacity="0.2" d="M135.186 154.782L127.039 156.246C125.741 156.48 124.573 157.18 123.753 158.214C122.934 159.247 122.519 160.544 122.586 161.862L123.182 173.442C128.553 172.53 133.939 171.77 139.338 171.164L141.444 161.232C141.628 160.364 141.595 159.463 141.348 158.611C141.102 157.758 140.65 156.979 140.032 156.342C139.413 155.705 138.648 155.229 137.803 154.957C136.958 154.685 136.059 154.625 135.186 154.782V154.782Z" fill="black"/>
<path d="M141.916 187.32L134.509 188.647L134.57 175.802L141.978 174.468L141.916 187.32Z" fill="#348A5F"/>
<path d="M143.038 180.692C143.038 184.242 142.518 187.21 141.916 187.313C141.314 187.416 140.836 184.639 140.849 181.089C140.863 177.539 141.369 174.577 141.978 174.467C142.587 174.358 143.059 177.156 143.038 180.692Z" fill="#348A5F"/>
<path opacity="0.2" d="M143.038 180.692C143.038 184.242 142.518 187.21 141.916 187.313C141.314 187.416 140.836 184.639 140.849 181.089C140.863 177.539 141.369 174.577 141.978 174.467C142.587 174.358 143.059 177.156 143.038 180.692Z" fill="black"/>
<path d="M111.629 122.921C109.194 123.366 107.035 124.757 105.625 126.791C104.215 128.824 103.668 131.334 104.105 133.77L109.673 164.707C110.115 167.142 111.506 169.302 113.54 170.713C115.574 172.124 118.085 172.67 120.521 172.231V172.231C138.701 168.963 157.163 167.517 175.631 167.915L194.625 168.332L182.464 100.732L164.803 107.743C147.629 114.563 129.815 119.647 111.629 122.921V122.921Z" fill="#348A5F"/>
<path opacity="0.3" d="M160.398 109.44L170.904 167.86C171.828 167.86 172.758 167.86 173.681 167.86L162.983 108.42C162.108 108.803 161.26 109.132 160.398 109.44Z" fill="black"/>
<path d="M191.397 134.064C194.755 152.73 196.185 168.093 194.612 168.38C193.038 168.667 189.023 153.763 185.665 135.097C182.306 116.43 180.877 101.068 182.45 100.78C184.023 100.493 188.038 115.363 191.397 134.064Z" fill="#348A5F"/>
<path opacity="0.2" d="M191.397 134.064C194.755 152.73 196.185 168.093 194.612 168.38C193.038 168.667 189.023 153.763 185.665 135.097C182.306 116.43 180.877 101.068 182.45 100.78C184.023 100.493 188.038 115.363 191.397 134.064Z" fill="black"/>
<path opacity="0.2" d="M92.4358 121.69L97.0323 124.843C96.8987 125.561 96.8277 126.288 96.8203 127.018C95.1718 127.018 92.7983 125.486 92.4974 123.79C92.3504 123.099 92.3296 122.388 92.4358 121.69V121.69Z" fill="black"/>
<path d="M96.3141 104.159C99.0912 104.412 103.277 111.875 100.493 114.501C97.7095 117.128 91.0542 103.674 96.3141 104.159Z" fill="#263238"/>
<path d="M86.567 114.802C88.1881 119.727 88.8789 122.702 92.0937 124.467C96.9227 127.121 102.545 122.839 102.443 117.442C102.354 112.586 99.7066 105.349 94.2757 104.925C93.0445 104.85 91.8136 105.076 90.6892 105.583C89.5647 106.09 88.5806 106.863 87.8217 107.835C87.0629 108.807 86.5521 109.95 86.3334 111.164C86.1148 112.377 86.195 113.626 86.567 114.802V114.802Z" fill="#FFC3BD"/>
<path d="M99.8641 103.359C98.5145 103.084 97.1361 102.976 95.7601 103.037C96.5598 102.3 97.2859 101.487 97.9283 100.609C96.6422 101.49 95.2148 102.145 93.7081 102.545C93.9599 101.915 94.1167 101.251 94.1732 100.575C93.1267 101.834 91.3483 102.689 89.4262 103.407C90.2457 102.386 90.8779 101.228 91.2935 99.9868C90.0965 102.196 85.6027 104.091 82.7709 105.972H82.7299C82.5309 106.09 82.3412 106.222 82.1621 106.369V106.369C81.9307 106.531 81.7313 106.735 81.5739 106.97C81.3061 107.267 81.1044 107.616 80.9823 107.997C80.8602 108.377 80.8205 108.778 80.8658 109.175C80.9111 109.572 81.0404 109.954 81.245 110.297C81.4497 110.64 81.725 110.935 82.0527 111.163C81.5347 111.531 81.1643 112.07 81.0076 112.685C80.851 113.301 80.9184 113.952 81.1977 114.522C81.1567 113.564 81.3824 112.518 82.0732 112.094C80.9104 115.459 84.8092 118.633 88.284 119.529C90.336 120.049 91.5945 112.196 89.652 109.091C92.2854 108.756 94.5357 108.099 95.8832 107.169C94.8687 107.498 93.7922 107.589 92.7368 107.436C95.2676 106.437 97.9899 105.028 100.138 105.384C99.1033 105.007 98.0098 104.819 96.9092 104.83C97.637 104.531 98.4141 104.371 99.2006 104.358C101.506 104.453 103.024 106.41 102.436 107.723C103.318 106.307 102.997 104.022 99.8641 103.359Z" fill="#263238"/>
<path d="M85.7326 121.068C86.2134 121.492 86.7756 121.813 87.3849 122.012C87.9942 122.21 88.6376 122.283 89.2758 122.224C91.0063 122.06 91.3278 120.336 90.4249 119.009C89.5904 117.819 87.6889 116.465 86.1567 117.292C85.8268 117.468 85.5447 117.722 85.3347 118.031C85.1247 118.341 84.9932 118.697 84.9514 119.068C84.9097 119.44 84.959 119.816 85.0951 120.165C85.2312 120.513 85.45 120.823 85.7326 121.068Z" fill="#FFC3BD"/>
<path d="M112.764 177.607C112.764 177.607 127.128 217.094 125.603 233.202C124.037 249.967 114.331 278.346 114.331 278.346H105.377C105.377 278.346 110.63 250.986 111.191 234.509C111.8 216.568 95.3564 193.879 94.351 180.056L112.764 177.607Z" fill="#348A5F"/>
<path opacity="0.2" d="M98.1129 191.219C97.7911 191.012 97.4409 190.853 97.0732 190.747C100.22 199.221 105.315 209.105 108.448 218.75C108.79 202.806 105.336 195.706 98.1129 191.219Z" fill="black"/>
<path d="M102.826 178.914C102.826 178.914 106.93 217.97 102.764 233.093C98.2018 249.66 85.069 278.319 85.069 278.319H75.3904C75.3904 278.319 83.8173 251.028 86.8269 234.612C90.0964 216.828 85.7119 194.522 84.7749 181.301L102.826 178.914Z" fill="#348A5F"/>
<path d="M86.7722 278.531H74.4807L75.3084 274.906H88.4685L86.7722 278.531Z" fill="#348A5F"/>
<path opacity="0.4" d="M86.7722 278.531H74.4807L75.3084 274.906H88.4685L86.7722 278.531Z" fill="black"/>
<path d="M116.314 278.531H104.153L104.351 275.084L116.991 274.906L116.314 278.531Z" fill="#348A5F"/>
<path opacity="0.4" d="M116.314 278.531H104.153L104.351 275.084L116.991 274.906L116.314 278.531Z" fill="black"/>
<path d="M94.5767 113.769C94.6793 114.173 94.9871 114.453 95.2607 114.351C95.5343 114.248 95.6574 113.865 95.5548 113.455C95.4522 113.044 95.1444 112.771 94.8708 112.873C94.5972 112.976 94.4673 113.359 94.5767 113.769Z" fill="#263238"/>
<path d="M99.18 112.285C99.2895 112.695 99.5904 112.969 99.864 112.873C100.138 112.777 100.268 112.381 100.158 111.977C100.049 111.574 99.7477 111.293 99.4741 111.389C99.2005 111.485 99.1048 111.875 99.18 112.285Z" fill="#263238"/>
<path d="M97.812 112.962C98.6233 114.052 99.5888 115.017 100.678 115.828C100.455 116.117 100.173 116.355 99.8513 116.526C99.5293 116.697 99.1745 116.797 98.8107 116.82L97.812 112.962Z" fill="#ED847E"/>
<path d="M97.8941 118.332C97.3626 118.526 96.7914 118.585 96.2315 118.503C95.6717 118.422 95.1407 118.203 94.6862 117.867C94.6742 117.855 94.6646 117.841 94.6581 117.826C94.6516 117.811 94.6482 117.794 94.6482 117.778C94.6482 117.761 94.6516 117.745 94.6581 117.729C94.6646 117.714 94.6742 117.7 94.6862 117.689C94.7091 117.667 94.7398 117.654 94.7717 117.654C94.8035 117.654 94.8342 117.667 94.8572 117.689C95.2834 117.994 95.7775 118.192 96.2969 118.265C96.8163 118.337 97.3456 118.283 97.8394 118.106C97.8546 118.101 97.8708 118.099 97.8869 118.1C97.9029 118.102 97.9185 118.106 97.9327 118.114C97.9468 118.122 97.9592 118.132 97.9691 118.145C97.9789 118.158 97.986 118.172 97.9899 118.188C97.9928 118.219 97.985 118.251 97.9675 118.277C97.9501 118.303 97.9241 118.322 97.8941 118.332Z" fill="#263238"/>
<path d="M92.7914 112.723C92.7399 112.737 92.6856 112.737 92.6341 112.723C92.6033 112.712 92.5752 112.694 92.5515 112.672C92.5277 112.649 92.5089 112.622 92.496 112.592C92.4832 112.562 92.4767 112.529 92.4769 112.497C92.4772 112.464 92.4841 112.431 92.4973 112.402C92.6389 112.019 92.866 111.675 93.1612 111.394C93.4564 111.113 93.8118 110.903 94.2005 110.78C94.2319 110.772 94.2647 110.771 94.2968 110.776C94.3289 110.781 94.3597 110.792 94.3872 110.81C94.4147 110.827 94.4384 110.85 94.4569 110.876C94.4753 110.903 94.4882 110.933 94.4946 110.965C94.5039 111.032 94.489 111.099 94.4526 111.156C94.4162 111.212 94.3607 111.254 94.2962 111.273V111.273C93.9845 111.369 93.6992 111.536 93.462 111.76C93.2248 111.984 93.0422 112.26 92.9282 112.566C92.9039 112.633 92.8551 112.69 92.7914 112.723Z" fill="#263238"/>
<path d="M100.828 110.048C100.785 110.063 100.738 110.065 100.693 110.054C100.648 110.043 100.608 110.02 100.575 109.987C100.38 109.745 100.128 109.556 99.8412 109.437C99.5546 109.317 99.2427 109.271 98.9338 109.303C98.9026 109.31 98.8703 109.31 98.839 109.303C98.8077 109.297 98.7782 109.284 98.7523 109.265C98.7265 109.246 98.7049 109.222 98.689 109.195C98.6731 109.167 98.6633 109.136 98.6602 109.104C98.6535 109.038 98.6714 108.971 98.7105 108.917C98.7495 108.863 98.8071 108.825 98.8722 108.81C99.2539 108.762 99.6416 108.81 100 108.95C100.358 109.089 100.676 109.317 100.924 109.611C100.969 109.659 100.995 109.722 100.995 109.788C100.995 109.855 100.969 109.918 100.924 109.966C100.902 110.003 100.868 110.032 100.828 110.048V110.048Z" fill="#263238"/>
<path d="M85.4043 139.877C85.9925 142.169 86.6081 144.577 87.2716 146.909C87.9351 149.241 88.5986 151.588 89.3236 153.886C90.0487 156.184 90.8558 158.455 91.7108 160.657C92.5112 162.783 93.4787 164.841 94.6041 166.813C94.7409 167.025 94.8709 167.272 95.0077 167.463L95.2197 167.771L95.3223 167.921C95.5178 168.158 95.7485 168.363 96.0063 168.53C96.876 169.133 97.7907 169.668 98.7423 170.131C100.794 171.15 103.031 172.087 105.288 172.969C109.816 174.734 114.509 176.389 119.16 177.976L118.257 181.841C113.239 181.115 108.269 180.091 103.373 178.777C100.857 178.107 98.3816 177.294 95.9584 176.341C94.6225 175.82 93.3321 175.189 92.1007 174.454C91.2944 173.97 90.5579 173.379 89.9119 172.696L89.6041 172.367L89.4331 172.149L89.0842 171.697C88.8448 171.396 88.6601 171.102 88.4481 170.801C86.9512 168.536 85.6645 166.139 84.604 163.64C83.537 161.252 82.6341 158.852 81.7928 156.41C80.1139 151.588 78.705 146.676 77.5725 141.697L85.4043 139.877Z" fill="#FFC3BD"/>
<path d="M76.6423 138.517C74.0431 144.577 78.2702 158.4 78.2702 158.4L90.9242 155.151C90.1423 150.274 89.0155 145.458 87.5521 140.74C85.3633 134.262 78.6601 133.852 76.6423 138.517Z" fill="#263238"/>
<path d="M82.6135 285.782C82.1517 285.771 81.6927 285.706 81.2455 285.59C81.2222 285.584 81.2014 285.571 81.1856 285.553C81.1698 285.534 81.1597 285.512 81.1566 285.488C81.1557 285.463 81.1617 285.438 81.1737 285.417C81.1858 285.395 81.2035 285.377 81.225 285.365C81.4233 285.242 83.188 284.195 83.7558 284.496C83.8188 284.53 83.8705 284.582 83.9045 284.645C83.9385 284.709 83.9534 284.78 83.9473 284.852C83.9574 284.981 83.9359 285.111 83.8846 285.23C83.8334 285.349 83.754 285.454 83.6532 285.536C83.3434 285.73 82.9777 285.817 82.6135 285.782ZM81.6148 285.413C82.2315 285.619 82.9033 285.585 83.4958 285.317C83.5624 285.263 83.615 285.194 83.6495 285.115C83.684 285.037 83.6993 284.951 83.6942 284.865C83.6964 284.836 83.6906 284.806 83.6773 284.78C83.6641 284.753 83.6439 284.731 83.619 284.715C83.3248 284.544 82.3262 285.016 81.6148 285.413V285.413Z" fill="#348A5F"/>
<path d="M81.2662 285.59H81.2046C81.1862 285.579 81.1714 285.563 81.1617 285.543C81.152 285.524 81.1479 285.502 81.1499 285.481C81.1499 285.412 81.3756 283.887 82.0186 283.388C82.0923 283.325 82.1787 283.278 82.2718 283.251C82.365 283.224 82.4629 283.217 82.5589 283.23C82.6511 283.228 82.741 283.259 82.8116 283.318C82.8822 283.378 82.9286 283.461 82.942 283.552C83.0172 284.147 81.8954 285.303 81.3277 285.604C81.3062 285.607 81.2843 285.602 81.2662 285.59V285.59ZM82.4632 283.449C82.3558 283.453 82.2525 283.491 82.169 283.559C81.7741 284.03 81.5224 284.604 81.444 285.214C82.0117 284.804 82.7368 283.928 82.6889 283.579C82.6889 283.579 82.6889 283.477 82.5179 283.456L82.4632 283.449Z" fill="#348A5F"/>
<path d="M113.394 285.782C112.839 285.77 112.287 285.706 111.745 285.59C111.72 285.587 111.696 285.575 111.679 285.556C111.661 285.538 111.651 285.513 111.649 285.488C111.647 285.461 111.653 285.434 111.666 285.411C111.68 285.387 111.7 285.369 111.725 285.358C111.971 285.235 114.153 284.154 114.775 284.516C114.833 284.549 114.882 284.597 114.916 284.655C114.949 284.712 114.967 284.778 114.967 284.845C114.972 284.96 114.949 285.076 114.902 285.181C114.854 285.287 114.783 285.38 114.693 285.453C114.309 285.705 113.851 285.821 113.394 285.782V285.782ZM112.169 285.412C113.325 285.604 114.221 285.556 114.536 285.269C114.595 285.22 114.642 285.158 114.673 285.088C114.704 285.018 114.718 284.942 114.714 284.865C114.716 284.839 114.71 284.813 114.698 284.79C114.686 284.767 114.668 284.748 114.645 284.735C114.303 284.544 113.065 284.995 112.176 285.412H112.169Z" fill="#348A5F"/>
<path d="M111.766 285.59C111.743 285.597 111.72 285.597 111.697 285.59C111.68 285.577 111.666 285.559 111.657 285.538C111.649 285.518 111.646 285.496 111.649 285.474C111.745 284.71 112.072 283.994 112.586 283.422C112.778 283.265 113.023 283.186 113.27 283.203C113.612 283.244 113.701 283.415 113.722 283.559C113.783 284.154 112.45 285.296 111.8 285.611L111.766 285.59ZM113.182 283.449C113.019 283.449 112.861 283.507 112.737 283.613C112.317 284.065 112.04 284.632 111.943 285.241C112.627 284.851 113.53 283.955 113.489 283.593C113.489 283.593 113.489 283.476 113.257 283.456L113.182 283.449Z" fill="#348A5F"/>
<path d="M118.154 177.888L123.441 177.019L121.314 183.592C121.314 183.592 116.704 183.326 116.711 180.808L118.154 177.888Z" fill="#FFC3BD"/>
<path d="M128.448 179.461L126.424 184.769L121.314 183.592L123.441 177.019L128.448 179.461Z" fill="#FFC3BD"/>
<path d="M268.354 104.33L260.604 75.5338C260.453 74.9723 260.193 74.446 259.839 73.985C259.485 73.524 259.043 73.1373 258.54 72.847C258.036 72.5567 257.48 72.3685 256.903 72.2932C256.327 72.2178 255.741 72.2568 255.18 72.4079L199.092 87.4559C197.957 87.7619 196.991 88.5059 196.405 89.5243C195.818 90.5427 195.661 91.7522 195.966 92.8869L203.709 121.683C204.013 122.817 204.756 123.784 205.773 124.372C206.79 124.959 207.998 125.119 209.133 124.816L217.047 122.689L227.943 128.961L225.624 120.384L265.228 109.741C266.358 109.434 267.321 108.694 267.906 107.68C268.492 106.666 268.653 105.462 268.354 104.33V104.33Z" fill="#348A5F"/>
<path opacity="0.2" d="M268.354 104.33L260.604 75.5338C260.453 74.9723 260.193 74.446 259.839 73.985C259.485 73.524 259.043 73.1373 258.54 72.847C258.036 72.5567 257.48 72.3685 256.903 72.2932C256.327 72.2178 255.741 72.2568 255.18 72.4079L199.092 87.4559C197.957 87.7619 196.991 88.5059 196.405 89.5243C195.818 90.5427 195.661 91.7522 195.966 92.8869L203.709 121.683C204.013 122.817 204.756 123.784 205.773 124.372C206.79 124.959 207.998 125.119 209.133 124.816L217.047 122.689L227.943 128.961L225.624 120.384L265.228 109.741C266.358 109.434 267.321 108.694 267.906 107.68C268.492 106.666 268.653 105.462 268.354 104.33V104.33Z" fill="black"/>
<path d="M291.206 164.625L294.202 145.131C294.32 144.363 294.128 143.581 293.669 142.955C293.21 142.329 292.521 141.911 291.753 141.793L253.764 135.951C253.384 135.892 252.996 135.908 252.622 136C252.248 136.091 251.896 136.255 251.586 136.482C251.276 136.71 251.014 136.996 250.815 137.325C250.616 137.655 250.484 138.02 250.426 138.4L247.423 157.894C247.305 158.661 247.497 159.444 247.956 160.07C248.416 160.696 249.105 161.114 249.872 161.232L255.228 162.06L260.146 168.763L261.042 162.949L287.841 167.053C288.221 167.115 288.61 167.102 288.986 167.014C289.361 166.925 289.715 166.764 290.028 166.538C290.341 166.312 290.606 166.027 290.808 165.699C291.01 165.371 291.145 165.005 291.206 164.625V164.625Z" fill="#348A5F"/>
<path opacity="0.3" d="M291.206 164.625L294.202 145.131C294.32 144.363 294.128 143.581 293.669 142.955C293.21 142.329 292.521 141.911 291.753 141.793L253.764 135.951C253.384 135.892 252.996 135.908 252.622 136C252.248 136.091 251.896 136.255 251.586 136.482C251.276 136.71 251.014 136.996 250.815 137.325C250.616 137.655 250.484 138.02 250.426 138.4L247.423 157.894C247.305 158.661 247.497 159.444 247.956 160.07C248.416 160.696 249.105 161.114 249.872 161.232L255.228 162.06L260.146 168.763L261.042 162.949L287.841 167.053C288.221 167.115 288.61 167.102 288.986 167.014C289.361 166.925 289.715 166.764 290.028 166.538C290.341 166.312 290.606 166.027 290.808 165.699C291.01 165.371 291.145 165.005 291.206 164.625V164.625Z" fill="white"/>
<path d="M289.859 133.024L284.975 98.1399C284.782 96.764 284.05 95.5212 282.94 94.6849C281.831 93.8485 280.434 93.4872 279.058 93.6803L211.062 103.188C209.686 103.381 208.443 104.113 207.607 105.223C206.77 106.332 206.409 107.728 206.602 109.104L211.486 143.988C211.58 144.67 211.808 145.326 212.156 145.919C212.504 146.512 212.966 147.031 213.515 147.445C214.064 147.86 214.689 148.162 215.355 148.334C216.021 148.506 216.715 148.545 217.396 148.448L226.972 147.08L238.839 156.034L237.382 145.623L285.378 138.913C286.752 138.723 287.994 137.997 288.834 136.893C289.673 135.789 290.042 134.398 289.859 133.024V133.024Z" fill="#348A5F"/>
<path d="M217.806 118.509L221.657 117.969L227.71 124.645L226.678 117.264L230.563 116.724L232.43 130.062L228.545 130.609L222.526 123.981L223.552 131.307L219.673 131.847L217.806 118.509Z" fill="white"/>
<path d="M233.292 116.341L244.345 114.795L244.742 117.648L237.827 118.612L238.121 120.733L244.537 119.836L244.92 122.572L238.504 123.469L238.866 126.095L245.987 125.103L246.411 128.12L235.159 129.693L233.292 116.341Z" fill="white"/>
<path d="M245.392 114.652L249.304 114.105L251.76 121.376L252.779 113.619L256.678 113.072L259.79 120.24L260.159 112.586L264.051 112.039L262.977 125.794L258.935 126.355L255.419 118.284L254.263 127.012L250.221 127.573L245.392 114.652Z" fill="white"/>
<path d="M265.925 120.876L269.817 120.083C269.924 120.59 270.159 121.061 270.501 121.451C270.758 121.689 271.067 121.863 271.403 121.959C271.739 122.056 272.094 122.071 272.437 122.005C272.93 121.968 273.393 121.752 273.737 121.396C273.868 121.262 273.967 121.1 274.027 120.922C274.088 120.745 274.107 120.556 274.086 120.37C274.056 120.192 273.988 120.023 273.886 119.874C273.785 119.726 273.652 119.601 273.497 119.508C272.802 119.19 272.046 119.027 271.281 119.029C269.847 118.998 268.441 118.627 267.177 117.949C266.759 117.687 266.405 117.335 266.141 116.918C265.877 116.501 265.71 116.031 265.652 115.541C265.553 114.839 265.667 114.124 265.98 113.489C266.331 112.782 266.883 112.194 267.567 111.799C268.56 111.263 269.651 110.93 270.775 110.821C272.13 110.545 273.537 110.685 274.811 111.225C275.329 111.52 275.777 111.923 276.126 112.407C276.474 112.891 276.714 113.444 276.828 114.029L272.977 114.802C272.855 114.307 272.559 113.873 272.143 113.578C271.706 113.343 271.201 113.266 270.713 113.359C270.324 113.384 269.955 113.547 269.674 113.817C269.573 113.921 269.497 114.046 269.452 114.184C269.407 114.321 269.394 114.467 269.414 114.611C269.433 114.723 269.478 114.829 269.544 114.921C269.61 115.014 269.697 115.09 269.797 115.144C270.253 115.346 270.748 115.446 271.247 115.438C272.612 115.493 273.967 115.706 275.283 116.074C276.022 116.303 276.683 116.734 277.191 117.319C277.631 117.866 277.911 118.524 277.998 119.221C278.121 120.061 277.99 120.918 277.622 121.683C277.24 122.482 276.631 123.151 275.871 123.605C274.905 124.153 273.836 124.495 272.731 124.611C270.451 124.93 268.819 124.702 267.834 123.927C266.859 123.166 266.183 122.086 265.925 120.876V120.876Z" fill="white"/>
</svg>
