<svg width="500" height="500" viewBox="0 0 500 500" fill="none" xmlns="http://www.w3.org/2000/svg">
<path d="M250 436.56C357.083 436.56 443.89 431.492 443.89 425.24C443.89 418.988 357.083 413.92 250 413.92C142.918 413.92 56.1104 418.988 56.1104 425.24C56.1104 431.492 142.918 436.56 250 436.56Z" fill="#F5F5F5"/>
<path d="M334.699 167.63C334.519 170.63 334.169 173.38 333.779 176.23C333.389 179.08 332.859 181.87 332.259 184.67C331.089 190.337 329.399 195.884 327.209 201.24L326.299 203.24L326.079 203.74L325.999 204L325.839 204.32C325.533 204.948 325.147 205.532 324.689 206.06C324.144 206.673 323.494 207.184 322.769 207.57C322.058 207.943 321.286 208.187 320.489 208.29C319.266 208.421 318.029 208.291 316.859 207.91C315.202 207.344 313.638 206.535 312.219 205.51C310.978 204.634 309.792 203.683 308.669 202.66C304.46 198.757 300.673 194.423 297.369 189.73L300.679 186.92C302.679 188.77 304.679 190.64 306.679 192.41C308.668 194.179 310.744 195.848 312.899 197.41C313.914 198.136 314.969 198.803 316.059 199.41C316.938 199.943 317.887 200.35 318.879 200.62C319.219 200.69 319.459 200.62 319.349 200.62C319.113 200.646 318.892 200.748 318.719 200.91C318.659 200.91 318.659 200.91 318.719 200.91L319.039 200.08L319.739 198.26C321.474 193.249 322.828 188.114 323.789 182.9C324.319 180.28 324.689 177.61 325.089 174.96C325.489 172.31 325.769 169.58 325.999 167.05L334.699 167.63Z" fill="#FFC3BD"/>
<path d="M328.64 156.62C324.91 157.57 322.3 172.91 322.3 172.91L332.57 179.91C332.57 179.91 342.42 164.44 339.57 160.34C336.57 156.05 334.08 155.24 328.64 156.62Z" fill="#348A5F"/>
<path d="M328.64 156.62C324.91 157.57 322.3 172.91 322.3 172.91L332.57 179.91C332.57 179.91 342.42 164.44 339.57 160.34C336.57 156.05 334.08 155.24 328.64 156.62Z" fill="#348A5F"/>
<path opacity="0.4" d="M328.64 156.62C324.91 157.57 322.3 172.91 322.3 172.91L332.57 179.91C332.57 179.91 342.42 164.44 339.57 160.34C336.57 156.05 334.08 155.24 328.64 156.62Z" fill="black"/>
<path opacity="0.3" d="M328.969 160.05L326.109 175.5L331.879 179.42L328.969 160.05Z" fill="black"/>
<path d="M300.849 186.29L295.999 178.57L293.229 187.34C293.229 187.34 297.229 191.54 300.859 190.54L300.849 186.29Z" fill="#FFC3BD"/>
<path d="M288.8 176.02L286.88 183.48L293.19 187.34L295.96 178.57L288.8 176.02Z" fill="#FFC3BD"/>
<path d="M348.799 414.75H339.759L339.149 393.81H348.199L348.799 414.75Z" fill="#FFC3BD"/>
<path d="M428.59 372.75L421.7 378.61L405.93 364.53L412.82 358.68L428.59 372.75Z" fill="#FFC3BD"/>
<path d="M419.809 377.91L426.499 370.25C426.613 370.118 426.772 370.032 426.945 370.008C427.118 369.984 427.293 370.024 427.439 370.12L434.249 374.53C434.417 374.647 434.558 374.798 434.664 374.973C434.769 375.148 434.837 375.344 434.861 375.547C434.886 375.75 434.867 375.956 434.806 376.151C434.746 376.346 434.644 376.527 434.509 376.68C432.129 379.31 430.849 380.46 427.909 383.82C426.109 385.89 423.679 389.11 421.179 391.96C418.679 394.81 415.719 392.51 416.509 391.09C420.019 384.75 419.179 382.53 419.239 379.41C419.248 378.859 419.45 378.328 419.809 377.91V377.91Z" fill="#263238"/>
<path d="M339.449 413.71H349.609C349.784 413.708 349.954 413.77 350.086 413.884C350.219 413.998 350.305 414.157 350.329 414.33L351.489 422.33C351.522 422.541 351.507 422.757 351.447 422.963C351.386 423.168 351.281 423.357 351.138 423.516C350.996 423.676 350.82 423.802 350.623 423.886C350.426 423.969 350.213 424.008 349.999 424C346.459 423.94 344.749 423.73 340.279 423.73C337.529 423.73 331.849 424.02 328.049 424.02C324.249 424.02 324.049 420.26 325.639 419.93C332.719 418.4 335.509 416.3 337.899 414.29C338.329 413.916 338.88 413.71 339.449 413.71V413.71Z" fill="#263238"/>
<path opacity="0.2" d="M339.159 393.82L339.469 404.61H348.509L348.199 393.82H339.159Z" fill="black"/>
<path opacity="0.2" d="M412.83 358.68L405.93 364.53L414.07 371.79L420.96 365.93L412.83 358.68Z" fill="black"/>
<path d="M328.64 156.62C328.64 156.62 324.33 158.14 332.96 211.2H369.68C369.07 196.25 369.05 187.03 376.19 156.36C371.049 155.3 365.839 154.612 360.6 154.3C355.047 153.905 349.473 153.905 343.92 154.3C336.76 155 328.64 156.62 328.64 156.62Z" fill="#348A5F"/>
<path opacity="0.4" d="M328.64 156.62C328.64 156.62 324.33 158.14 332.96 211.2H369.68C369.07 196.25 369.05 187.03 376.19 156.36C371.049 155.3 365.839 154.612 360.6 154.3C355.047 153.905 349.473 153.905 343.92 154.3C336.76 155 328.64 156.62 328.64 156.62Z" fill="black"/>
<path d="M360.599 154.3C355.046 153.905 349.472 153.905 343.919 154.3C343.019 154.38 342.099 154.48 341.189 154.59C340.813 155.158 340.572 155.806 340.485 156.482C340.399 157.158 340.468 157.845 340.689 158.49C341.859 161.4 346.079 161.74 349.159 161.74C360.529 161.74 362.449 155.1 362.529 154.82L362.639 154.42C361.999 154.38 361.279 154.33 360.599 154.3Z" fill="white"/>
<path d="M358.999 135.53C357.939 140.89 356.899 150.72 360.649 154.3C360.649 154.3 359.179 159.75 349.209 159.75C338.209 159.75 343.969 154.31 343.969 154.31C349.969 152.88 349.799 148.44 348.759 144.31L358.999 135.53Z" fill="#FFC3BD"/>
<path opacity="0.2" d="M354.77 139.09L348.71 144.26C348.971 145.243 349.145 146.247 349.23 147.26C351.51 146.93 354.65 144.42 354.9 142.03C355.04 141.05 354.996 140.053 354.77 139.09V139.09Z" fill="black"/>
<path d="M352.709 106.35C351.779 103.2 350.999 98.2398 356.599 95.9998C354.409 93.3198 353.879 88.2798 356.599 85.2898C359.319 82.2998 363.399 83.3998 363.399 83.3998C363.399 83.3998 364.599 76.0898 373.489 77.3998C382.379 78.7098 378.419 84.5598 378.419 84.5598C378.419 84.5598 390.549 82.1598 391.359 93.5598C392.169 104.96 385.209 103.56 385.209 103.56C385.209 103.56 390.619 108.1 387.619 113.09C384.619 118.08 377.689 116.36 377.689 116.36C377.689 116.36 374.429 125.18 366.749 120.16C359.069 115.14 352.709 106.35 352.709 106.35Z" fill="#263238"/>
<path d="M334.699 113C331.699 116.88 333.019 121.27 335.699 123C342.149 127.12 351.479 109.84 349.049 107.77C346.619 105.7 337.699 109.11 334.699 113Z" fill="#263238"/>
<path d="M361.79 103.76C357.55 102.05 353.25 103.84 351.91 106.42C348.64 112.71 363.49 124.04 367.79 116.18C370.34 111.51 366.16 105.52 361.79 103.76Z" fill="#348A5F"/>
<path d="M359.999 123C360.309 132 360.629 135.76 356.559 140.77C350.449 148.3 339.359 146.72 336.379 138.02C333.699 130.19 333.649 116.84 342.039 112.46C343.884 111.484 345.947 110.996 348.033 111.043C350.119 111.089 352.158 111.667 353.958 112.723C355.757 113.779 357.257 115.278 358.314 117.076C359.372 118.875 359.952 120.914 359.999 123V123Z" fill="#FFC3BD"/>
<path d="M358.65 127.71C354.65 126.22 353.65 121.55 354.29 119.71C352.29 119.63 347.92 118.91 346.29 116.43C343.17 118.43 336.58 120.43 335.87 117.1C335.16 113.77 345.1 105.21 352.62 104.55C361.56 103.77 370.38 112.55 368.11 120.96C365.84 129.37 358.65 127.71 358.65 127.71Z" fill="#263238"/>
<path d="M333 211.2C333 211.2 325.87 280.85 326.46 308.43C327.08 337.11 337.59 402.52 337.59 402.52H349.81C349.81 402.52 347.88 338.78 348.96 310.62C350.14 279.91 359.89 211.2 359.89 211.2H333Z" fill="#263238"/>
<path d="M350.83 402.96H336.49L335.43 398.39L351.5 397.83L350.83 402.96Z" fill="#348A5F"/>
<path opacity="0.2" d="M348.799 228.53C339.799 246.67 346.989 279.77 350.179 292.09C351.809 273.59 354.569 250.98 356.719 234.38C355.359 225 352.999 220.16 348.799 228.53Z" fill="black"/>
<path d="M342.659 211.2C342.659 211.2 350.979 283.61 357.259 306.86C364.719 334.46 411.049 371.61 411.049 371.61L420.449 363.61C420.449 363.61 386.869 323.25 381.159 308.71C368.989 277.71 379.409 231.43 369.679 211.18L342.659 211.2Z" fill="#263238"/>
<path d="M421.95 363.2L410.29 373.1L405.93 370.49L419.12 358.22L421.95 363.2Z" fill="#348A5F"/>
<path d="M346.69 126.76C346.76 127.49 346.43 128.11 345.96 128.16C345.49 128.21 345.04 127.65 344.96 126.93C344.88 126.21 345.22 125.57 345.7 125.53C346.18 125.49 346.62 126 346.69 126.76Z" fill="#263238"/>
<path d="M338.49 127.55C338.56 128.27 338.23 128.9 337.75 128.95C337.27 129 336.84 128.44 336.75 127.71C336.66 126.98 337.01 126.36 337.48 126.32C337.95 126.28 338.42 126.82 338.49 127.55Z" fill="#263238"/>
<path d="M337.71 126.34L335.92 126C335.92 126 337 127.28 337.71 126.34Z" fill="#263238"/>
<path d="M340.77 128.59C340.283 130.307 339.563 131.949 338.63 133.47C339.027 133.698 339.468 133.838 339.924 133.879C340.379 133.92 340.839 133.863 341.27 133.71L340.77 128.59Z" fill="#ED847E"/>
<path d="M345.299 136.1C344.903 136.208 344.498 136.282 344.09 136.32C344.062 136.323 344.034 136.32 344.008 136.312C343.981 136.304 343.956 136.29 343.935 136.273C343.914 136.255 343.896 136.233 343.883 136.209C343.87 136.184 343.862 136.157 343.859 136.13C343.854 136.073 343.87 136.016 343.906 135.971C343.941 135.927 343.993 135.897 344.049 135.89C344.955 135.823 345.832 135.545 346.61 135.078C347.388 134.611 348.045 133.967 348.53 133.2C348.541 133.173 348.558 133.15 348.579 133.13C348.601 133.111 348.626 133.097 348.654 133.088C348.681 133.08 348.71 133.077 348.739 133.081C348.768 133.085 348.795 133.094 348.82 133.11C348.869 133.137 348.906 133.183 348.923 133.237C348.939 133.291 348.935 133.349 348.91 133.4C348.103 134.735 346.808 135.703 345.299 136.1V136.1Z" fill="#263238"/>
<path d="M362.099 129.21C361.88 130.931 360.989 132.495 359.619 133.56C357.789 134.96 356.029 133.56 355.819 131.37C355.639 129.37 356.359 126.37 358.539 125.79C359.015 125.693 359.507 125.713 359.974 125.848C360.44 125.983 360.866 126.23 361.216 126.566C361.567 126.902 361.83 127.319 361.984 127.779C362.137 128.24 362.177 128.731 362.099 129.21V129.21Z" fill="#FFC3BD"/>
<path d="M347.569 121.62C347.514 121.634 347.456 121.637 347.399 121.628C347.343 121.62 347.288 121.6 347.239 121.57C346.786 121.281 346.271 121.103 345.735 121.051C345.2 120.998 344.66 121.074 344.159 121.27C344.055 121.316 343.938 121.321 343.83 121.284C343.722 121.247 343.633 121.171 343.579 121.07C343.531 120.968 343.525 120.851 343.562 120.744C343.6 120.637 343.678 120.55 343.779 120.5C344.409 120.24 345.092 120.135 345.771 120.194C346.45 120.253 347.104 120.475 347.679 120.84C347.727 120.869 347.768 120.907 347.801 120.951C347.834 120.996 347.857 121.047 347.87 121.101C347.883 121.155 347.885 121.211 347.877 121.266C347.868 121.32 347.848 121.373 347.819 121.42C347.764 121.516 347.675 121.587 347.569 121.62Z" fill="#263238"/>
<path d="M334.47 124.11C334.367 124.149 334.253 124.149 334.15 124.11C334.053 124.053 333.981 123.961 333.949 123.854C333.918 123.746 333.929 123.63 333.98 123.53C334.285 122.921 334.732 122.395 335.284 121.996C335.836 121.598 336.476 121.338 337.15 121.24C337.206 121.234 337.262 121.24 337.316 121.257C337.37 121.274 337.419 121.301 337.462 121.337C337.505 121.374 337.54 121.418 337.566 121.469C337.591 121.519 337.606 121.574 337.61 121.63C337.618 121.742 337.582 121.854 337.509 121.94C337.436 122.026 337.332 122.08 337.22 122.09C336.689 122.179 336.187 122.392 335.755 122.712C335.322 123.032 334.971 123.449 334.73 123.93C334.701 123.976 334.664 124.016 334.619 124.047C334.574 124.078 334.523 124.1 334.47 124.11V124.11Z" fill="#263238"/>
<path d="M379.94 166.11C381.979 171.098 383.738 176.196 385.21 181.38C386.77 186.609 387.88 191.962 388.53 197.38C388.7 198.76 388.75 200.21 388.81 201.64V202.45C388.81 202.74 388.76 203.04 388.72 203.3C388.636 203.8 388.523 204.294 388.38 204.78C388.119 205.612 387.784 206.418 387.38 207.19C385.993 209.754 384.293 212.135 382.32 214.28C378.67 218.29 374.652 221.949 370.32 225.21L367.43 222C370.76 218.11 374.12 214.12 376.97 210C378.347 208.13 379.52 206.119 380.47 204C380.633 203.59 380.766 203.169 380.87 202.74C380.897 202.595 380.914 202.448 380.92 202.3C380.925 202.257 380.925 202.213 380.92 202.17C380.92 202.17 380.92 202.17 380.92 202.17V202.03C380.79 200.85 380.7 199.67 380.48 198.46C379.619 193.52 378.42 188.645 376.89 183.87C375.36 179.03 373.65 174.12 371.89 169.44L379.94 166.11Z" fill="#FFC3BD"/>
<path d="M376.19 156.36C379.87 157.48 384.29 170.15 384.29 170.15L370 180.35C370 180.35 364.79 169.78 366.34 165.02C368 160.07 372 155.08 376.19 156.36Z" fill="#348A5F"/>
<path opacity="0.4" d="M376.19 156.36C379.87 157.48 384.29 170.15 384.29 170.15L370 180.35C370 180.35 364.79 169.78 366.34 165.02C368 160.07 372 155.08 376.19 156.36Z" fill="black"/>
<path d="M417.34 382.27C417.155 382.265 416.973 382.218 416.809 382.134C416.644 382.049 416.501 381.928 416.39 381.78C416.299 381.686 416.234 381.571 416.203 381.444C416.171 381.318 416.173 381.185 416.21 381.06C416.55 379.96 419.69 379.06 420.05 378.96C420.089 378.946 420.132 378.945 420.171 378.958C420.211 378.97 420.246 378.996 420.27 379.03C420.292 379.064 420.304 379.104 420.304 379.145C420.304 379.186 420.292 379.226 420.27 379.26C419.71 380.33 418.6 382.13 417.46 382.26L417.34 382.27ZM419.66 379.52C418.42 379.92 416.8 380.61 416.66 381.19C416.645 381.245 416.645 381.303 416.661 381.358C416.677 381.412 416.708 381.461 416.75 381.5C416.829 381.615 416.938 381.706 417.064 381.766C417.191 381.825 417.33 381.851 417.47 381.84C418.05 381.77 418.86 380.91 419.66 379.52V379.52Z" fill="#348A5F"/>
<path d="M418.669 379.56C417.734 379.655 416.797 379.391 416.049 378.82C415.945 378.688 415.888 378.524 415.888 378.355C415.888 378.186 415.945 378.022 416.049 377.89C416.138 377.751 416.257 377.634 416.397 377.548C416.538 377.461 416.695 377.407 416.859 377.39C418.159 377.23 420.129 378.93 420.209 379C420.238 379.023 420.261 379.055 420.273 379.09C420.285 379.125 420.287 379.163 420.279 379.2C420.275 379.239 420.26 379.276 420.235 379.306C420.21 379.336 420.177 379.358 420.139 379.37C419.661 379.506 419.166 379.57 418.669 379.56ZM417.079 377.81H416.939C416.837 377.822 416.738 377.855 416.65 377.909C416.562 377.962 416.487 378.034 416.429 378.12C416.279 378.35 416.329 378.47 416.429 378.55C416.819 379.06 418.599 379.25 419.679 379.05C418.94 378.41 418.042 377.982 417.079 377.81V377.81Z" fill="#348A5F"/>
<path d="M336.049 415.29C335.277 415.36 334.504 415.162 333.859 414.73C333.722 414.604 333.615 414.449 333.548 414.276C333.48 414.102 333.453 413.915 333.469 413.73C333.478 413.611 333.516 413.497 333.581 413.397C333.645 413.297 333.734 413.216 333.839 413.16C334.949 412.55 338.549 414.39 338.959 414.61C338.998 414.631 339.029 414.664 339.048 414.703C339.068 414.742 339.075 414.786 339.07 414.83C339.064 414.874 339.044 414.915 339.014 414.948C338.983 414.98 338.943 415.002 338.899 415.01C337.96 415.19 337.006 415.284 336.049 415.29ZM334.439 413.42C334.301 413.411 334.164 413.439 334.04 413.5C333.997 413.521 333.961 413.554 333.936 413.594C333.911 413.635 333.898 413.682 333.899 413.73C333.883 413.855 333.897 413.982 333.941 414.101C333.984 414.219 334.056 414.325 334.149 414.41C334.699 414.91 336.149 414.99 338.149 414.66C336.993 414.038 335.738 413.619 334.439 413.42V413.42Z" fill="#348A5F"/>
<path d="M338.859 415H338.769C337.689 414.51 335.559 412.56 335.769 411.54C335.769 411.3 335.979 410.99 336.569 410.93C336.782 410.908 336.998 410.929 337.202 410.993C337.407 411.056 337.596 411.161 337.759 411.3C338.889 412.25 339.099 414.68 339.109 414.79C339.112 414.827 339.106 414.864 339.09 414.897C339.074 414.93 339.05 414.959 339.019 414.98C338.996 414.995 338.969 415.004 338.942 415.008C338.914 415.011 338.886 415.009 338.859 415V415ZM336.699 411.33H336.579C336.179 411.33 336.159 411.53 336.149 411.58C336.049 412.19 337.499 413.73 338.599 414.39C338.51 413.363 338.104 412.388 337.439 411.6C337.237 411.414 336.974 411.307 336.699 411.3V411.33Z" fill="#348A5F"/>
<path d="M370.229 209L371.169 212.29C371.299 212.54 370.999 212.8 370.569 212.8H332.779C332.449 212.8 332.169 212.64 332.149 212.43L331.819 209.15C331.819 208.92 332.079 208.73 332.449 208.73H369.639C369.753 208.72 369.866 208.74 369.97 208.787C370.073 208.835 370.163 208.908 370.229 209V209Z" fill="#348A5F"/>
<path opacity="0.3" d="M370.229 209L371.169 212.29C371.299 212.54 370.999 212.8 370.569 212.8H332.779C332.449 212.8 332.169 212.64 332.149 212.43L331.819 209.15C331.819 208.92 332.079 208.73 332.449 208.73H369.639C369.753 208.72 369.866 208.74 369.97 208.787C370.073 208.835 370.163 208.908 370.229 209V209Z" fill="white"/>
<path d="M365.239 213.2H366.239C366.429 213.2 366.579 213.1 366.569 212.97L366.099 208.7C366.099 208.58 365.919 208.47 365.719 208.47H364.719C364.519 208.47 364.369 208.58 364.389 208.7L364.849 212.97C364.869 213.1 364.999 213.2 365.239 213.2Z" fill="#263238"/>
<path d="M335.58 213.2H336.58C336.78 213.2 336.93 213.1 336.92 212.97L336.45 208.7C336.45 208.58 336.26 208.47 336.07 208.47H335.07C334.87 208.47 334.72 208.58 334.73 208.7L335.2 212.97C335.21 213.1 335.38 213.2 335.58 213.2Z" fill="#263238"/>
<path d="M350.409 213.2H351.409C351.609 213.2 351.759 213.1 351.749 212.97L351.279 208.7C351.279 208.58 351.099 208.47 350.899 208.47H349.899C349.699 208.47 349.549 208.58 349.569 208.7L349.999 213C349.999 213.1 350.209 213.2 350.409 213.2Z" fill="#263238"/>
<path d="M345.92 125.55L344.13 125.21C344.13 125.21 345.15 126.49 345.92 125.55Z" fill="#263238"/>
<path opacity="0.2" d="M312.819 252.89C295.877 259.472 277.364 260.883 259.62 256.943C241.876 253.003 225.699 243.891 213.135 230.757C200.57 217.624 192.182 201.059 189.031 183.159C185.88 165.258 188.108 146.825 195.433 130.191C202.758 113.557 214.851 99.468 230.183 89.7064C245.515 79.9448 263.397 74.9487 281.569 75.35C299.74 75.7513 317.384 81.5319 332.27 91.9609C347.156 102.39 358.616 116.999 365.199 133.94C369.572 145.19 371.686 157.191 371.42 169.257C371.155 181.324 368.514 193.22 363.65 204.266C358.786 215.312 351.793 225.291 343.072 233.635C334.35 241.978 324.07 248.521 312.819 252.89V252.89Z" fill="#348A5F"/>
<path opacity="0.1" d="M296.189 76.8501L224.109 240.55C222.999 239.71 221.899 238.84 220.819 237.96C213.853 232.197 207.786 225.425 202.819 217.87V217.87L265.079 76.4701C275.394 74.8087 285.918 74.9373 296.189 76.8501Z" fill="white"/>
<path opacity="0.1" d="M347.43 105.25L279.66 259.16C265.583 259.175 251.691 255.952 239.06 249.74L313.06 81.6699C326.169 86.797 337.928 94.864 347.43 105.25V105.25Z" fill="white"/>
<path d="M203.879 105.32C216.125 90.3571 232.533 79.3614 251.028 73.7235C269.522 68.0855 289.274 68.0585 307.784 73.6459C326.294 79.2332 342.732 90.184 355.018 105.113C367.305 120.043 374.888 138.28 376.81 157.52C378.731 176.759 374.904 196.136 365.813 213.2C356.722 230.265 342.775 244.25 325.736 253.388C308.696 262.526 289.33 266.406 270.085 264.537C250.841 262.669 232.583 255.135 217.619 242.89C197.557 226.468 184.838 202.749 182.262 176.95C179.685 151.152 187.461 125.386 203.879 105.32V105.32ZM348.999 224.08C360.24 210.34 367.154 193.575 368.867 175.906C370.58 158.236 367.015 140.456 358.622 124.812C350.23 109.169 337.388 96.3653 321.719 88.0204C306.051 79.6755 288.26 76.1642 270.595 77.9303C252.931 79.6964 236.187 86.6608 222.481 97.9427C208.775 109.225 198.722 124.317 193.593 141.313C188.464 158.308 188.49 176.442 193.668 193.423C198.845 210.403 208.941 225.467 222.679 236.71C231.803 244.176 242.307 249.771 253.593 253.177C264.879 256.583 276.725 257.732 288.456 256.56C300.186 255.387 311.57 251.915 321.958 246.342C332.346 240.769 341.535 233.204 348.999 224.08V224.08Z" fill="#348A5F"/>
<path d="M357.63 223.74C367.26 229.49 376.42 235.81 385.42 242.33C394.42 248.85 403.19 255.64 411.82 262.61C420.45 269.58 428.92 276.75 437.09 284.28C441.183 288.04 445.183 291.9 449.09 295.86C453.01 299.86 456.86 303.86 460.49 308.2C461.329 309.205 461.791 310.471 461.798 311.78C461.804 313.088 461.354 314.359 460.526 315.372C459.697 316.385 458.542 317.078 457.258 317.331C455.974 317.585 454.641 317.383 453.49 316.76C448.49 314.06 443.81 311.08 439.14 308.03C434.47 304.98 429.91 301.8 425.41 298.53C416.41 292.01 407.7 285.14 399.17 278.05C390.64 270.96 382.24 263.71 374.07 256.17C365.9 248.63 357.89 240.91 350.35 232.61C349.408 231.584 348.869 230.252 348.829 228.86C348.79 227.467 349.254 226.107 350.137 225.029C351.019 223.952 352.26 223.228 353.633 222.991C355.006 222.754 356.418 223.02 357.61 223.74H357.63Z" fill="#348A5F"/>
<path d="M368.389 221L358.729 222.47L365.639 228.53C365.639 228.53 371.099 226.53 371.639 222.83L368.389 221Z" fill="#FFC3BD"/>
<path d="M353.51 228.02L359.58 232.78L366.99 227.94L358.73 222.49L353.51 228.02Z" fill="#FFC3BD"/>
<path d="M307.84 238.55C308.722 236.141 310.313 234.056 312.403 232.569C314.494 231.083 316.985 230.263 319.55 230.22H399.6C400.983 230.168 402.361 230.421 403.636 230.96C404.911 231.498 406.052 232.31 406.979 233.339C407.906 234.367 408.596 235.585 409 236.909C409.405 238.233 409.514 239.629 409.32 241L388.64 414.51C388.201 417.464 386.726 420.165 384.478 422.131C382.23 424.097 379.356 425.199 376.37 425.24H122.37C120.991 425.293 119.618 425.042 118.347 424.507C117.075 423.971 115.936 423.164 115.011 422.141C114.085 421.118 113.395 419.905 112.989 418.586C112.583 417.268 112.47 415.876 112.66 414.51L130 268.73C130.439 265.776 131.914 263.075 134.162 261.109C136.41 259.143 139.284 258.041 142.27 258H280.49C286.479 257.898 292.297 255.985 297.179 252.514C302.061 249.042 305.777 244.174 307.84 238.55V238.55Z" fill="#348A5F"/>
<path d="M117.23 417.25H382.64L397.76 238.67H132.36L117.23 417.25Z" fill="#F0F0F0"/>
<path d="M117.23 417.25H382.64L393.58 238.67H132.36L117.23 417.25Z" fill="#E0E0E0"/>
<path d="M117.23 417.25H382.64L391.76 233H126.36L117.23 417.25Z" fill="#F0F0F0"/>
<path d="M117.23 417.25H382.64L386.25 233H126.36L117.23 417.25Z" fill="#E0E0E0"/>
<path d="M117.23 417.25H382.64L384.22 228H118.82L117.23 417.25Z" fill="#F0F0F0"/>
<path d="M117.23 417.25H382.64L377.19 231.58H113.5L117.23 417.25Z" fill="#E0E0E0"/>
<path d="M117.23 417.25H382.64L374.76 233H109.36L117.23 417.25Z" fill="#F0F0F0"/>
<path d="M117.23 417.25H382.64L370.09 235.78H104.69L117.23 417.25Z" fill="#E0E0E0"/>
<path d="M117.23 417.25H382.64L368.09 237.33H102.69L117.23 417.25Z" fill="#F0F0F0"/>
<path d="M250.14 249.82C250.155 248.66 250.403 247.514 250.87 246.452C251.336 245.39 252.012 244.432 252.856 243.636C253.701 242.84 254.697 242.222 255.785 241.819C256.873 241.416 258.031 241.236 259.19 241.29H339.24C342.339 241.409 345.311 242.554 347.69 244.545C350.068 246.536 351.718 249.26 352.38 252.29L384.01 414.29C385.19 420.36 381.23 425.29 375.16 425.29H121.16C115.08 425.29 109.16 420.36 108.01 414.29L81.9199 280.74C80.7399 274.67 84.6999 269.74 90.7699 269.74H229C241 269.74 249.73 261.48 250.14 249.82Z" fill="#348A5F"/>
<path opacity="0.2" d="M250.14 249.82C250.155 248.66 250.403 247.514 250.87 246.452C251.336 245.39 252.012 244.432 252.856 243.636C253.701 242.84 254.697 242.222 255.785 241.819C256.873 241.416 258.031 241.236 259.19 241.29H339.24C342.339 241.409 345.311 242.554 347.69 244.545C350.068 246.536 351.718 249.26 352.38 252.29L384.01 414.29C385.19 420.36 381.23 425.29 375.16 425.29H121.16C115.08 425.29 109.16 420.36 108.01 414.29L81.9199 280.74C80.7399 274.67 84.6999 269.74 90.7699 269.74H229C241 269.74 249.73 261.48 250.14 249.82Z" fill="black"/>
</svg>
